<svg xmlns="http://www.w3.org/2000/svg" version="1.1" xmlns:xlink="http://www.w3.org/1999/xlink" xmlns:svgjs="http://svgjs.dev/svgjs" width="1500" height="1500" viewBox="0 0 1500 1500"><g transform="matrix(1,0,0,1,0,0)"><svg viewBox="0 0 280 280" data-background-color="#f5f5f5" preserveAspectRatio="xMidYMid meet" height="1500" width="1500" xmlns="http://www.w3.org/2000/svg" xmlns:xlink="http://www.w3.org/1999/xlink"><g id="tight-bounds" transform="matrix(1,0,0,1,0,0)"><svg viewBox="0 0 280 280" height="280" width="280"><g><svg viewBox="0 0 280 280" height="280" width="280"><g><svg viewBox="0 0 280 280" height="280" width="280"><g id="textblocktransform"><svg viewBox="0 0 280 280" height="280" width="280" id="textblock"><g><svg viewBox="0 0 280 280" height="280" width="280"><g transform="matrix(1,0,0,1,75.98326607657789,75.98326607657789)"><svg viewBox="0 0 128.03346784684422 128.03346784684422" height="128.03346784684422" width="128.03346784684422"><g id="icon-0"><svg xmlns="http://www.w3.org/2000/svg" xmlns:xlink="http://www.w3.org/1999/xlink" version="1.1" x="0" y="0" viewBox="5 5 90 90" style="enable-background:new 0 0 100 100;" xml:space="preserve" height="128.03346784684422" width="128.03346784684422" class="icon-jxe-0" data-fill-palette-color="accent" id="jxe-0"><path d="M87.5 5H12.5C8.364 5 5 8.364 5 12.5V67.5C5 71.636 8.364 75 12.5 75H33.75V80H25C20.864 80 17.5 83.364 17.5 87.5S20.864 95 25 95H75C79.136 95 82.5 91.636 82.5 87.5S79.136 80 75 80H66.25V75H87.5C91.636 75 95 71.636 95 67.5V12.5C95 8.364 91.636 5 87.5 5M75 85C76.378 85 77.5 86.122 77.5 87.5S76.378 90 75 90H25C23.622 90 22.5 88.878 22.5 87.5S23.622 85 25 85zM38.75 80V75H61.25V80zM90 67.5C90 68.878 88.878 70 87.5 70H12.5A2.503 2.503 0 0 1 10 67.5V12.5C10 11.122 11.122 10 12.5 10H87.5C88.878 10 90 11.122 90 12.5z" fill="#da5528" data-fill-palette-color="accent"></path><path d="M15 60H85V15H15zM43.018 33.661L48.322 38.964 57.161 30.126 60.696 33.661 48.321 46.036 39.482 37.197z" fill="#da5528" data-fill-palette-color="accent"></path><circle cx="50" cy="65" r="2.5" fill="#da5528" data-fill-palette-color="accent"></circle></svg></g></svg></g><g id="text-0"><path d="M39.597 86.036l1.74-4.118 1.532 0.648-3.346 7.921-6.703 0.105-5.254 12.436 4.597 4.88-3.347 7.921-1.533-0.648 1.74-4.117-18.97-20.124 1.892-4.478zM24.406 99.691l3.815-9.029-12.146 0.189z" fill="#da5527" data-fill-palette-color="primary"></path><path d="M52.033 66.996l4.711-6.5 1.347 0.976-17.391 23.996-1.347-0.976 4.687-6.468c-3.522 1.227-7.157 0.482-10.906-2.235v0l-12.278-8.899 2.67-3.684 12.124 8.787c1.996 1.447 3.941 2.093 5.835 1.939 1.889-0.158 3.45-1.089 4.686-2.793 1.239-1.71 1.64-3.486 1.202-5.33-0.443-1.848-1.663-3.495-3.66-4.942v0l-12.123-8.787 2.67-3.684 12.278 8.899c3.771 2.733 5.603 5.967 5.495 9.701z" fill="#da5527" data-fill-palette-color="primary"></path><path d="M73.398 47.004l6.935-5.609 1.047 1.293-23.464 18.977-1.046-1.294 2.907-2.351-15.914-19.676 7.2-5.823c3.761-3.042 7.392-4.466 10.892-4.272 3.5 0.194 6.592 1.951 9.277 5.271v0c3.609 4.463 4.331 8.957 2.166 13.484zM67.663 36.406v0c-3.882-4.8-8.574-4.976-14.076-0.526v0l-3.538 2.862 11.628 14.377 3.928-3.176c2.54-2.055 3.996-4.233 4.368-6.537 0.372-2.303-0.398-4.636-2.31-7z" fill="#da5527" data-fill-palette-color="primary"></path><path d="M81.232 40.953l3.304-1.748-11.834-22.368 4.031-2.133 11.834 22.368 3.305-1.748 0.778 1.471-10.64 5.629z" fill="#da5527" data-fill-palette-color="primary"></path><path d="M106.337 30.33l8.895-2.948 0.524 1.579-22.119 7.331-0.523-1.579 8.904-2.951-6.65-20.064-7.772 2.576-1.312-3.957 19.854-6.581 1.312 3.957-7.763 2.573z" fill="#da5527" data-fill-palette-color="primary"></path><path d="M116.635 27.129l10.44-1.676 0.264 1.642-10.44 1.677z" fill="#da5527" data-fill-palette-color="primary"></path><path d="M136.669 25.366l18.089 0.245-0.023 1.663-26.386-0.357 0.023-1.664 3.738 0.051 0.342-25.304 9.26 0.125c4.095 0.055 7.071 0.881 8.927 2.477 1.856 1.595 2.762 4.023 2.718 7.283-0.044 3.267-1.035 5.649-2.973 7.147-1.938 1.491-4.888 2.209-8.85 2.155v0l-4.78-0.065zM142.091 15.065c2.525 0.034 4.249-0.427 5.171-1.383 0.928-0.95 1.405-2.356 1.43-4.221 0.025-1.864-0.535-3.191-1.68-3.982-1.152-0.784-2.961-1.193-5.426-1.226v0l-4.63-0.062-0.146 10.803z" fill="#da5527" data-fill-palette-color="primary"></path><path d="M177.712 31.967l8.512 2.382-0.448 1.602-31.213-8.736 0.449-1.602 8.512 2.383c-1.707-1.734-2.866-3.779-3.476-6.136-0.608-2.363-0.562-4.796 0.138-7.298v0c1.068-3.816 3.273-6.636 6.615-8.462 3.344-1.832 6.949-2.208 10.816-1.126 3.867 1.082 6.754 3.275 8.661 6.577 1.908 3.296 2.329 6.851 1.26 10.667v0c-0.693 2.477-1.917 4.58-3.67 6.31-1.752 1.723-3.804 2.869-6.156 3.439zM182.248 13.566c-1.263-2.331-3.181-3.856-5.755-4.577-2.574-0.72-5.005-0.412-7.294 0.925-2.283 1.339-3.79 3.314-4.521 5.926-0.731 2.612-0.469 5.083 0.788 7.412 1.263 2.331 3.181 3.856 5.754 4.577 2.574 0.72 5.005 0.412 7.295-0.925 2.283-1.339 3.79-3.314 4.52-5.926 0.731-2.612 0.469-5.083-0.787-7.412z" fill="#da5527" data-fill-palette-color="primary"></path><path d="M207.964 47.492l3.201 1.931-0.859 1.425-7.14-4.308-0.824-11.09-5.124-3.09-4.685 7.766-7.105-4.286 0.859-1.425 3.201 1.931 13.072-21.669 8.59 5.182c3.524 2.126 5.688 4.243 6.492 6.352 0.804 2.108 0.416 4.472-1.165 7.092v0c-2.299 3.81-5.411 5.206-9.338 4.187v0zM204.208 31.754c2.203 1.329 3.904 1.891 5.105 1.687 1.206-0.201 2.264-1.057 3.175-2.568 0.911-1.51 1.127-2.793 0.647-3.846-0.474-1.051-1.758-2.208-3.852-3.471v0l-4.952-2.987-4.98 8.255z" fill="#da5527" data-fill-palette-color="primary"></path><path d="M220.881 58.93l6.733 6.518-1.157 1.195-16.743-16.206 1.157-1.196 6.74 6.525 14.701-15.188-5.883-5.695 2.899-2.995 15.029 14.547-2.899 2.996-5.877-5.688z" fill="#da5527" data-fill-palette-color="primary"></path><path d="M242.167 89.517l2.297 3.834-1.427 0.855-4.42-7.376 3.87-5.474-6.939-11.58-6.652 0.832-4.42-7.377 1.427-0.855 2.297 3.835 27.441-3.44 2.499 4.169zM240.107 69.194l5.038 8.408 7.015-9.917z" fill="#da5527" data-fill-palette-color="primary"></path><path d="M250.377 109.936l1.223 3.533-1.572 0.544-7.965-23.004 1.572-0.544 1.223 3.532 23.913-8.28 1.492 4.309-21.403 7.411 4.027 11.63z" fill="#da5527" data-fill-palette-color="primary"></path><path d="M17.817 203.114l1.739 4.117-1.532 0.648-3.347-7.921 4.597-4.88-5.254-12.436-6.703-0.106-3.347-7.921 1.533-0.647 1.74 4.117 27.652 0.427 1.892 4.478zM18.615 182.703l3.815 9.029 8.331-8.841z" fill="#da5527" data-fill-palette-color="primary"></path><path d="M32.888 226.827l4.711 6.5-1.347 0.977-17.392-23.997 1.347-0.976 4.688 6.468c-0.07-3.729 1.77-6.952 5.519-9.669v0l12.278-8.899 2.67 3.685-12.124 8.786c-1.996 1.447-3.216 3.094-3.659 4.942-0.438 1.844-0.039 3.618 1.196 5.322 1.239 1.71 2.803 2.643 4.691 2.802 1.894 0.154 3.839-0.493 5.836-1.94v0l12.124-8.787 2.67 3.685-12.278 8.898c-3.771 2.733-7.414 3.467-10.93 2.203z" fill="#da5527" data-fill-palette-color="primary"></path><path d="M58.529 251.328l6.936 5.609-1.047 1.294-23.463-18.977 1.046-1.294 2.907 2.351 15.913-19.676 7.201 5.823c3.761 3.042 5.913 6.295 6.455 9.758 0.542 3.463-0.53 6.854-3.215 10.174v0c-3.609 4.463-7.854 6.109-12.733 4.938zM67.693 243.504v0c3.882-4.8 3.073-9.425-2.429-13.875v0l-3.538-2.861-11.628 14.377 3.928 3.176c2.54 2.055 4.975 3.023 7.305 2.905 2.33-0.118 4.45-1.359 6.362-3.722z" fill="#da5527" data-fill-palette-color="primary"></path><path d="M70.175 259.894l3.304 1.748 11.835-22.368 4.03 2.132-11.834 22.369 3.304 1.748-0.778 1.47-10.639-5.629z" fill="#da5527" data-fill-palette-color="primary"></path><path d="M98.898 272.061l8.895 2.948-0.523 1.58-22.119-7.332 0.524-1.579 8.904 2.952 6.65-20.064-7.772-2.576 1.312-3.958 19.854 6.581-1.312 3.958-7.763-2.573z" fill="#da5527" data-fill-palette-color="primary"></path><path d="M112.887 276.164l10.44 1.676-0.264 1.643-10.44-1.676z" fill="#da5527" data-fill-palette-color="primary"></path><path d="M136.989 278.224l18.089-0.245 0.023 1.664-26.387 0.357-0.022-1.664 3.738-0.05-0.343-25.304 9.26-0.126c4.095-0.055 7.092 0.689 8.991 2.234 1.899 1.545 2.87 3.947 2.914 7.207 0.044 3.267-0.882 5.675-2.779 7.225-1.897 1.543-4.826 2.341-8.788 2.394v0l-4.78 0.065zM142.13 267.78c2.525-0.034 4.236-0.542 5.132-1.522 0.902-0.974 1.341-2.394 1.315-4.258-0.025-1.864-0.621-3.176-1.787-3.935-1.173-0.753-2.992-1.112-5.457-1.079v0l-4.63 0.063 0.146 10.803z" fill="#da5527" data-fill-palette-color="primary"></path><path d="M184.085 270.75l8.512-2.382 0.449 1.602-31.213 8.736-0.448-1.602 8.512-2.383c-2.359-0.596-4.411-1.742-6.156-3.439-1.747-1.704-2.97-3.807-3.67-6.31v0c-1.068-3.816-0.648-7.371 1.26-10.666 1.907-3.302 4.793-5.494 8.661-6.577 3.867-1.082 7.472-0.707 10.816 1.125 3.342 1.826 5.547 4.647 6.615 8.463v0c0.693 2.477 0.739 4.91 0.138 7.298-0.603 2.382-1.762 4.427-3.476 6.135zM178.41 252.669c-2.289-1.337-4.721-1.645-7.294-0.925-2.574 0.72-4.492 2.246-5.755 4.577-1.256 2.329-1.519 4.8-0.787 7.412 0.731 2.612 2.238 4.588 4.52 5.926 2.289 1.337 4.721 1.645 7.295 0.924 2.574-0.72 4.492-2.246 5.754-4.576 1.256-2.329 1.519-4.8 0.787-7.412-0.731-2.612-2.238-4.588-4.52-5.926z" fill="#da5527" data-fill-palette-color="primary"></path><path d="M220.178 252.701l3.201-1.931 0.859 1.425-7.14 4.307-10.194-4.443-5.124 3.091 4.685 7.766-7.105 4.287-0.86-1.425 3.201-1.931-13.071-21.669 8.59-5.182c3.524-2.126 6.406-3.053 8.646-2.781 2.24 0.272 4.15 1.718 5.73 4.339v0c2.299 3.81 2.082 7.215-0.651 10.213v0zM204.505 248.684c2.203-1.329 3.493-2.572 3.872-3.729 0.385-1.161 0.121-2.496-0.79-4.006-0.911-1.51-1.945-2.299-3.101-2.366-1.151-0.071-2.773 0.526-4.867 1.788v0l-4.952 2.987 4.98 8.256z" fill="#da5527" data-fill-palette-color="primary"></path><path d="M237.326 238.006l6.733-6.517 1.157 1.195-16.743 16.207-1.157-1.196 6.74-6.524-14.701-15.188-5.883 5.695-2.9-2.995 15.029-14.548 2.9 2.996-5.876 5.688z" fill="#da5527" data-fill-palette-color="primary"></path><path d="M262.448 202.585l2.298-3.835 1.427 0.856-4.42 7.376-6.652-0.832-6.94 11.58 3.871 5.474-4.421 7.376-1.427-0.855 2.298-3.834-15.973-22.577 2.498-4.169zM245.499 213.984l5.038-8.407-12.053-1.51z" fill="#da5527" data-fill-palette-color="primary"></path><path d="M272.72 177.747l1.223-3.532 1.572 0.544-7.965 23.004-1.572-0.544 1.223-3.532-23.913-8.281 1.492-4.309 21.403 7.411 4.027-11.63z" fill="#da5527" data-fill-palette-color="primary"></path><path d="M3.163 139.974c0-5.829 4.725-10.554 10.554-10.554 5.829 0 10.554 4.725 10.553 10.554 0 5.829-4.725 10.554-10.553 10.553-5.829 0-10.554-4.725-10.554-10.553z" fill="#da5527" data-fill-palette-color="primary"></path><path d="M255.73 139.974c0-5.829 4.725-10.554 10.553-10.554 5.829 0 10.554 4.725 10.554 10.554 0 5.829-4.725 10.554-10.554 10.553-5.829 0-10.554-4.725-10.553-10.553z" fill="#da5527" data-fill-palette-color="primary"></path></g><g id="text-1"></g></svg></g></svg></g></svg></g><g></g></svg></g><defs></defs></svg><rect width="280" height="280" fill="none" stroke="none" visibility="hidden"></rect></g></svg></g></svg>