<svg xmlns="http://www.w3.org/2000/svg" version="1.1" xmlns:xlink="http://www.w3.org/1999/xlink" xmlns:svgjs="http://svgjs.dev/svgjs" width="1500" height="1500" viewBox="0 0 1500 1500"><g transform="matrix(1,0,0,1,0,0)"><svg viewBox="0 0 280 280" data-background-color="#f5f5f5" preserveAspectRatio="xMidYMid meet" height="1500" width="1500" xmlns="http://www.w3.org/2000/svg" xmlns:xlink="http://www.w3.org/1999/xlink"><g id="tight-bounds" transform="matrix(1,0,0,1,0,0)"><svg viewBox="0 0 280 280" height="280" width="280"><g><svg viewBox="0 0 280 280" height="280" width="280"><g><svg viewBox="0 0 280 280" height="280" width="280"><g id="textblocktransform"><svg viewBox="0 0 280 280" height="280" width="280" id="textblock"><g><svg viewBox="0 0 280 280" height="280" width="280"><g transform="matrix(1,0,0,1,34.88019417527748,34.40538734280888)"><svg viewBox="0 0 210.23961164944504 211.18922531438224" height="211.18922531438224" width="210.23961164944504"><g id="icon-0"><svg xmlns="http://www.w3.org/2000/svg" xmlns:xlink="http://www.w3.org/1999/xlink" version="1.1" x="0" y="0" viewBox="3.680863094888096 2.734013676289096 92.51295170089675 92.93081569155771" enable-background="new 0 0 100 100" xml:space="preserve" height="211.18922531438224" width="210.23961164944504" class="icon-jxe-0" data-fill-palette-color="accent" id="jxe-0"><path d="M52.4 87.5C60.4 86.8 67.8 83.7 73.7 78.8 67.6 83.7 60.1 86.7 52.4 87.5" fill="#da5533" data-fill-palette-color="accent"></path><path d="M85.8 61.8C86.2 60.6 86.6 59.4 86.9 58.2 86.6 59.3 86.2 60.5 85.8 61.8" fill="#da5533" data-fill-palette-color="accent"></path><path d="M86.9 71C86.9 71.1 86.8 71.1 86.8 71.2 86.9 71 87 70.8 87.2 70.6 87.1 70.7 87 70.8 86.9 71" fill="#da5533" data-fill-palette-color="accent"></path><path d="M88.4 50C88.4 51 88.2 52 88 53 87.8 54.3 87.6 55.6 87.3 56.8 87.8 54.6 88.3 52.3 88.4 50" fill="#da5533" data-fill-palette-color="accent"></path><path d="M22.3 25.8C19 29.3 16.5 33.4 14.9 37.9 16.6 33.6 19.2 29.5 22.3 25.8" fill="#da5533" data-fill-palette-color="accent"></path><path d="M81 57V56.8C81 57 80.9 57.1 80.9 57.3 80.9 57.2 81 57.1 81 57" fill="#da5533" data-fill-palette-color="accent"></path><path d="M74 71L75.2 69.2C73.9 70.6 72.5 71.9 71.2 73.3 72.2 72.6 73.1 71.9 74 71" fill="#da5533" data-fill-palette-color="accent"></path><path d="M40 80C49.8 83.2 61 82 70 75 70.4 74.4 70.8 73.9 71.3 73.4 66.6 77 60.8 79.3 55 81 50 82 45 81 40 80" fill="#da5533" data-fill-palette-color="accent"></path><path d="M18.6 52C18.7 49.7 18.9 47.4 19 44.9 18.5 47.2 18.4 49.6 18.6 52" fill="#da5533" data-fill-palette-color="accent"></path><path d="M18.6 52C18.5 53.9 18.6 55.9 19 58 22 69 30.2 76.8 40 80 27.6 75.7 19.4 64 18.6 52" fill="#da5533" data-fill-palette-color="accent"></path><path d="M87.2 70.5C87.6 69.8 87.7 69.5 87.7 69.5 87.5 69.9 87.3 70.2 87.2 70.5" fill="#da5533" data-fill-palette-color="accent"></path><path d="M77 67C78.8 63.8 80.1 60.5 80.9 57.3 79.2 61.5 77.5 65.6 75.2 69.2 75.9 68.5 76.5 67.8 77 67" fill="#da5533" data-fill-palette-color="accent"></path><path d="M69.3 28.5C67.9 27.3 66.5 26.2 65 25.2 66.4 26.3 67.8 27.4 69.3 28.5" fill="#da5533" data-fill-palette-color="accent"></path><path d="M59.3 76C60.6 75.6 61.9 75 63.1 74.4 61.9 74.9 60.6 75.4 59.3 76" fill="#da5533" data-fill-palette-color="accent"></path><path d="M42.8 21.4C38.7 22.2 34.8 23.8 31 26 28 29 24 32 22 36 21 39 19 41 19 44V44.8C19.9 39.9 22.2 35.1 26 31 30.7 26.3 36.3 23.4 42.8 21.4" fill="#da5533" data-fill-palette-color="accent"></path><path d="M44 21C43.6 21.1 43.2 21.2 42.8 21.4 44.6 21 46.4 20.8 48.2 20.8 46.8 20.7 45.4 20.8 44 21" fill="#da5533" data-fill-palette-color="accent"></path><path d="M74.7 59.7C75.7 57.1 76.5 54.6 77 52 79 37 68 24 53 21 51.4 20.8 49.8 20.7 48.3 20.8 52.8 21 57.2 22.5 61 24 74.2 31 79.6 46.5 74.7 59.7" fill="#da5533" data-fill-palette-color="accent"></path><path d="M42 87" fill="#da5533" data-fill-palette-color="accent"></path><path d="M23.6 24.5C27.5 21.3 31.9 18.5 36.7 16.8 36.5 16.9 36.2 16.9 36 17 31.1 18.7 27 21.3 23.6 24.5" fill="#da5533" data-fill-palette-color="accent"></path><path d="M85.8 61.8C83.4 68.3 79.3 74 74.2 78.4 77.7 75.5 80.7 72 83 68 84.2 66.1 85.1 63.9 85.8 61.8" fill="#da5533" data-fill-palette-color="accent"></path><path d="M22.3 25.8C22.7 25.4 23.1 24.9 23.6 24.5 23.4 24.7 23.2 24.8 23 25 22.8 25.3 22.5 25.5 22.3 25.8" fill="#da5533" data-fill-palette-color="accent"></path><path d="M20 73C12.6 62.4 11.1 49.6 14.7 38.7 12.6 44.4 11.9 50.5 13 57 14 64 17 71 22 76 23.4 77.2 24.8 78.2 26.2 79.3 23.8 77.1 21.6 75.4 20 73" fill="#da5533" data-fill-palette-color="accent"></path><path d="M52.4 87.5C49 87.8 45.6 87.7 42 87 45.5 87.7 49 87.8 52.4 87.5" fill="#da5533" data-fill-palette-color="accent"></path><path d="M82 48C82 47.7 82 47.4 81.9 47.1V49.2C82 48.8 82 48.4 82 48" fill="#da5533" data-fill-palette-color="accent"></path><path d="M42 87C35.9 85.5 30.9 82.7 26.2 79.3 26.8 79.8 27.4 80.4 28 81 32.3 84.1 37.1 86.1 42 87" fill="#da5533" data-fill-palette-color="accent"></path><path d="M63 91C72.9 87 81.9 81.1 86.8 71.2 79 84.6 64.3 92.3 49.5 92.6 54 92.7 58.5 92.3 63 91" fill="#da5533" data-fill-palette-color="accent"></path><path d="M58.3 21.5C60.7 22.5 62.9 23.8 65.1 25.2 64.1 24.4 63.2 23.7 62 22.9 60.8 22.4 59.5 22 58.3 21.5" fill="#da5533" data-fill-palette-color="accent"></path><path d="M19 40C14 55 20 71 34 79 44 84 55 84 65 79 70 77 74 73 77 69 85.9 56.9 85.1 41 77.3 29.6 85.2 41.9 85.2 59.4 75 71 67 80 55 84 43 82 36 80 29 76 24 70 18 61 16 51 19 41 24.6 25.2 42.2 16.3 58.3 21.5 56.9 21 55.5 20.4 54 20 38 17 24 26 19 40" fill="#da5533" data-fill-palette-color="accent"></path><path d="M62.6 17.6C68.7 20.2 73.7 24.5 77.3 29.7 73.8 24.3 68.9 20 62.6 17.6" fill="#da5533" data-fill-palette-color="accent"></path><path d="M44 15C41.5 15.3 39 15.9 36.7 16.8 39.5 16 42.2 15.9 45 15 51 14 56 16 61 17 61.6 17.2 62.1 17.4 62.6 17.6 61.1 17 59.6 16.4 58 16 53 15 49 14 44 15" fill="#da5533" data-fill-palette-color="accent"></path><path d="M69.3 28.5C69.7 28.8 70.1 29.2 70.5 29.5 70.3 29.3 70.2 29.1 70 28.9 69.8 28.8 69.6 28.7 69.3 28.5" fill="#da5533" data-fill-palette-color="accent"></path><path d="M16 25C13 28 11.5 31.7 10.3 35.7 12.4 30.4 15.4 25.9 19.3 21.8 18.2 22.8 17.1 23.9 16 25" fill="#da5533" data-fill-palette-color="accent"></path><path d="M10.3 35.7C9.3 38 8.6 40.4 8 43 7.9 43.8 7.8 44.5 7.8 45.3 7.8 44.9 7.9 44.4 8 44 8.8 41.2 9.4 38.4 10.3 35.7" fill="#da5533" data-fill-palette-color="accent"></path><path d="M7.6 55.7C7.3 52.3 7.4 48.8 7.8 45.2 7.1 48.9 7.1 52.2 7.6 55.7" fill="#da5533" data-fill-palette-color="accent"></path><path d="M18.9 79.6C13.5 73.1 9.9 66.4 8 58 7.8 57.2 7.7 56.5 7.6 55.7 8 59.9 9 64 11 68 13 72.1 15.6 76.2 18.9 79.6" fill="#da5533" data-fill-palette-color="accent"></path><path d="M49.5 92.6C47 92.5 44.5 92.3 42 92 35 91 30 88 24 84 22.1 82.7 20.4 81.2 18.9 79.6 19.3 80.1 19.6 80.5 20 81 28.2 89.2 38.9 92.8 49.5 92.6" fill="#da5533" data-fill-palette-color="accent"></path><path d="M20 21C19.7 21.3 19.5 21.6 19.2 21.8 19.6 21.4 20 21 20.4 20.7 20.3 20.8 20.1 20.9 20 21" fill="#da5533" data-fill-palette-color="accent"></path><path d="M87.1 57.4C87 57.6 87 57.9 86.9 58.1 86.9 58 86.9 58 87 57.9 87 57.8 87.1 57.6 87.1 57.4" fill="#da5533" data-fill-palette-color="accent"></path><path d="M87 40C82 18 59 4 38 11 37 11.3 35.9 11.8 34.7 12.3 36.9 11.4 39.3 10.6 42 10 65 6 85 23 88 46 88.2 47 88.4 47.9 88.4 48.9 88.3 45.9 87.7 42.7 87 40" fill="#da5533" data-fill-palette-color="accent"></path><path d="M28 15C25 16.8 22.7 18.6 20.4 20.7 24.9 17.5 29 14.7 33.8 12.7 31.8 13.5 29.7 14.4 28 15" fill="#da5533" data-fill-palette-color="accent"></path><path d="M46.7 10.7C42.8 10.9 38.9 11.7 35 13L34.4 13.3C37.4 12.4 40.7 11.7 44 11 44.9 10.8 45.8 10.7 46.7 10.7" fill="#da5533" data-fill-palette-color="accent"></path><path d="M89.1 61.2C89.4 60.3 89.6 59.4 89.8 58.5 89.6 59.4 89.3 60.3 89.1 61.2" fill="#da5533" data-fill-palette-color="accent"></path><path d="M56 85C60 84 64 83 68 81 70.4 79.6 72.4 78 74.2 76.2 67.4 82.2 58.4 85.4 49.3 85.4 51.6 85.4 53.8 85.3 56 85" fill="#da5533" data-fill-palette-color="accent"></path><path d="M62 89C57.9 90.2 53.8 90.6 49.6 90.6 54 90.7 58.2 90.3 62 89" fill="#da5533" data-fill-palette-color="accent"></path><path d="M90.4 43.1C90.2 41.4 89.8 39.6 89.4 37.9 89.7 39.7 90.1 41.4 90.4 43.1" fill="#da5533" data-fill-palette-color="accent"></path><path d="M43 80C43.3 80.1 43.6 80.1 43.8 80.1 43.4 80 43 79.9 42.6 79.9 42.8 79.9 42.9 80 43 80" fill="#da5533" data-fill-palette-color="accent"></path><path d="M37 78C39.1 79 40.9 79.5 42.7 79.9 40.3 79.3 37.6 78.3 35.2 77 35.8 77.4 36.4 77.7 37 78" fill="#da5533" data-fill-palette-color="accent"></path><path d="M35.2 77L32.8 75.5C33.5 76 34.3 76.6 35.2 77" fill="#da5533" data-fill-palette-color="accent"></path><path d="M94.6 42.3C95.3 46.1 95.4 50 95 54 95.8 50.1 95.3 46.2 94.6 42.3" fill="#da5533" data-fill-palette-color="accent"></path><path d="M94.4 41C94.3 40.3 94.1 39.7 94 39 90 24 81 11 66 6 60 4 54 2 47 3 69.6 2.2 90.1 19.5 94.4 41" fill="#da5533" data-fill-palette-color="accent"></path><path d="M89 72C86 77 82 81 78 85 83 81 86 77 89 72" fill="#da5533" data-fill-palette-color="accent"></path><path d="M74.7 59.7C74.3 60.7 73.9 61.7 73.4 62.7 73.8 61.7 74.3 60.7 74.7 59.7" fill="#da5533" data-fill-palette-color="accent"></path><path d="M95 54C93 60 93 66 89 72 93 66 94 60 95 54" fill="#da5533" data-fill-palette-color="accent"></path><path d="M24 88C29 92 35 94 41 95 42.5 95.1 43.9 95.3 45.4 95.4 37 94.5 29 91.5 22.3 86.7 22.9 87.1 23.4 87.6 24 88" fill="#da5533" data-fill-palette-color="accent"></path><path d="M29 11C27.1 12.2 25.1 13.5 23.3 14.9 28.6 12.2 34 9.5 40 7.6 36.1 8.4 32.2 9.4 29 11" fill="#da5533" data-fill-palette-color="accent"></path><path d="M94.9 58.9C93.4 64.5 91 69.8 88 75 91.5 69.9 93.7 64.4 94.9 58.9" fill="#da5533" data-fill-palette-color="accent"></path><path d="M66.2 10.9C69.3 12.4 72.3 14.2 75.1 16.3 72.4 14.2 69.4 12.4 66.2 10.9" fill="#da5533" data-fill-palette-color="accent"></path><path d="M6 63L6.9 65.7C5.2 60.6 4.4 55.4 4.4 50.2 4.2 54.5 4.7 59 6 63" fill="#da5533" data-fill-palette-color="accent"></path><path d="M76 17C75.7 16.8 75.4 16.5 75.1 16.3 75.7 16.8 76.4 17.3 77 17.8 76.6 17.6 76.3 17.3 76 17" fill="#da5533" data-fill-palette-color="accent"></path><path d="M91 58.4C92.1 54.1 92.5 49.7 92 45 91 39 89 33 86 27 84.8 25.1 83.4 23.4 82 21.7 90.2 31.8 93.7 45.5 91 58.4" fill="#da5533" data-fill-palette-color="accent"></path><path d="M50.4 10.7" fill="#da5533" data-fill-palette-color="accent"></path><path d="M53 11C52.1 10.9 51.2 10.8 50.4 10.7 51.4 10.8 52.4 10.9 53.5 11.1 53.3 11.1 53.1 11 53 11" fill="#da5533" data-fill-palette-color="accent"></path><path d="M58 12C56.4 11.7 54.9 11.4 53.4 11.1 55.9 11.7 58 12.4 60.2 13 59.5 12.7 58.7 12.4 58 12" fill="#da5533" data-fill-palette-color="accent"></path><path d="M14.5 71.7C15.3 73.2 16.1 74.6 17 76 20 80 23 82 27 85 22.1 81.2 17.7 76.7 14.5 71.7" fill="#da5533" data-fill-palette-color="accent"></path><path d="M72 31C71.5 30.5 71 30 70.5 29.6 79.1 39.6 80.9 53.3 73 65 71 67 70 69 68 71 66.5 72.3 64.9 73.4 63.2 74.3 63.5 74.2 63.8 74.1 64 74 79 65 83 44 72 31" fill="#da5533" data-fill-palette-color="accent"></path><path d="M13 32C17.9 23.2 25.7 17.3 34.4 13.3 32.8 13.8 31.3 14.4 30 15 19 21 11 31 9 44 9 49 8 53 9 58 9.9 63 11.8 67.5 14.5 71.7 7.7 58.8 6.7 44.6 13 32" fill="#da5533" data-fill-palette-color="accent"></path><path d="M44.5 86.4C50.9 87.5 57.6 86.8 64 84 64.5 83.7 65 83.5 65.5 83.2 59 86.2 51.6 87.3 44.5 86.4" fill="#da5533" data-fill-palette-color="accent"></path><path d="M64 14C62.7 13.7 61.5 13.3 60.3 13 62.7 14 65.3 14.8 67.7 16 66.5 15.3 65.2 14.6 64 14" fill="#da5533" data-fill-palette-color="accent"></path><path d="M21.9 73.5C23.3 75.2 24.6 76.6 26 78 31.3 82.8 37.8 85.5 44.5 86.4 35.7 84.9 27.6 80.3 21.9 73.5" fill="#da5533" data-fill-palette-color="accent"></path><path d="M81 29C85 35 86 41 87 47 88 52 86 56 85 61 83 68.2 78.8 74.1 73.4 78.4 73.6 78.3 73.8 78.1 74 78 89 65 92 44 80 27 77.9 23.9 75.3 21.3 72.3 19.1 75.7 21.9 78.3 25.5 81 29" fill="#da5533" data-fill-palette-color="accent"></path><path d="M71 18C70 17.2 68.8 16.6 67.7 16 69.3 16.9 70.8 17.9 72.3 19.1 71.9 18.7 71.5 18.3 71 18" fill="#da5533" data-fill-palette-color="accent"></path><path d="M81.4 77.4C79.1 79.7 76.6 81.6 74.2 83.8 77 81.8 79.4 79.7 81.4 77.4" fill="#da5533" data-fill-palette-color="accent"></path><path d="M39.2 90.3C37.3 89.6 35.3 89 33.5 88.3 35.4 89.2 37.3 89.8 39.2 90.3" fill="#da5533" data-fill-palette-color="accent"></path><path d="M7.5 32.4C4.4 39.1 3 46.5 4 54 3.2 46.3 4.5 39 7.5 32.4" fill="#da5533" data-fill-palette-color="accent"></path><path d="M56 91C51 91 47 92 42 91 41.1 90.8 40.2 90.6 39.2 90.3 39.8 90.5 40.4 90.7 41 91 47 92 53 92 59 91 64 90 69 88 73 85 73.4 84.6 73.8 84.2 74.3 83.8 74.2 83.9 74.1 83.9 74 84 68 88 63 90 56 91" fill="#da5533" data-fill-palette-color="accent"></path><path d="M33.5 88.3C31.3 87.4 29.1 86.3 27 85 29 86.5 31.2 87.5 33.5 88.3" fill="#da5533" data-fill-palette-color="accent"></path><path d="M73.4 78.4C71 80 68.6 81.6 65.6 83.2 68.3 81.9 71 80.3 73.4 78.4" fill="#da5533" data-fill-palette-color="accent"></path><path d="M43 6C52 5 61 7 69 11 70.5 11.8 72 12.7 73.4 13.7 72.6 13.1 71.8 12.6 71 12 66 9 60 7 54 6 34.4 3.1 15.3 15 7.5 32.4 13.9 18.6 27.5 8 43 6" fill="#da5533" data-fill-palette-color="accent"></path><path d="M82 49.2C81.8 51.7 81.1 54.3 81.1 56.8 81.6 54.3 81.9 51.7 82 49.2" fill="#da5533" data-fill-palette-color="accent"></path><path d="M85 73C85.2 72.6 85.4 72.3 85.6 71.9 84.4 73.9 83 75.7 81.4 77.4 82.8 76.1 84 74.7 85 73" fill="#da5533" data-fill-palette-color="accent"></path><path d="M82 21.7C79.5 18.7 76.6 15.9 73.4 13.7 76.6 16.1 79.4 18.7 82 21.7" fill="#da5533" data-fill-palette-color="accent"></path><path d="M14 55C13 50 14 46 15 41 17 35 20 29 25 25 29 22 34 19 39 17 58.7 11.1 80.4 26.6 81.9 47.1 81.8 44.7 81.5 42.3 81 40 79 32 74 26 67 21 63 18 58 17 53 16 47 15 41 16 36 18 30 21 25 24 21 29S15 39 14 45C12 56 15.5 66 21.9 73.5 21.3 72.7 20.6 71.9 20 71 18 66 15 61 14 55" fill="#da5533" data-fill-palette-color="accent"></path><path d="M89 65C89.9 62.8 90.5 60.6 91 58.4 89.9 63 88 67.5 85.6 71.9 86.9 69.7 88.1 67.5 89 65" fill="#da5533" data-fill-palette-color="accent"></path><path d="M32 80C43 86 55 86 66 81 74 77 79 70 83 62 85 57 86 51 85 45 84.9 44.8 84.9 44.7 84.8 44.5 87.2 61 76.7 78 60 83 45.8 86.8 31.6 82.5 22.5 71 23 71.7 23.5 72.3 24 73 26 76 29 78 32 80" fill="#da5533" data-fill-palette-color="accent"></path><path d="M76.6 18.7C77 19.1 77.5 19.5 77.9 19.9 77.6 19.6 77.3 19.2 77 18.9 76.9 18.9 76.7 18.8 76.6 18.7" fill="#da5533" data-fill-palette-color="accent"></path><path d="M24 80C25.5 81.2 27 82.3 28.5 83.3 17.4 75.7 10.6 63.6 10.3 51 10.3 54.6 10.9 58.3 12 62 14 69 18 75 24 80" fill="#da5533" data-fill-palette-color="accent"></path><path d="M37.6 87.9C34.2 86.7 31.3 85.1 28.5 83.3 29.9 84.3 31.4 85.2 33 86 34.5 86.8 36.1 87.4 37.6 87.9" fill="#da5533" data-fill-palette-color="accent"></path><path d="M59 89C87 82 100 49 83 26L82.7 25.7C86.8 31.5 89.4 38.4 90 46 91 63 82 79 67 86 64 87 60 88 57 89 50.5 89.8 44.1 90 37.6 87.9 38.7 88.3 39.8 88.7 41 89 47 90 53 90 59 89" fill="#da5533" data-fill-palette-color="accent"></path><path d="M39.4 8.4C44.6 7.3 49.7 7.2 54.7 8 49.5 7.2 44.4 7.3 39.4 8.4" fill="#da5533" data-fill-palette-color="accent"></path><path d="M37 9S36.9 9 37 9C37 9 37.1 9 37.2 8.9 37.2 9 37.1 9 37 9" fill="#da5533" data-fill-palette-color="accent"></path><path d="M74.7 23.9C77.1 27.1 79.5 30.4 81.3 33.6 80.6 32 79.9 30.5 79 29 77.6 27.1 76.2 25.4 74.7 23.9" fill="#da5533" data-fill-palette-color="accent"></path><path d="M36.9 9C30.8 10.7 25.1 13.8 20 18 16.8 20.5 14.5 23.9 12.4 27.3 12.9 26.6 13.5 25.8 14 25 20 17 27.9 12 36.9 9" fill="#da5533" data-fill-palette-color="accent"></path><path d="M83 64C80.4 68.6 77.7 72.8 74.2 76.2 77.9 73 81 68.9 83 64" fill="#da5533" data-fill-palette-color="accent"></path><path d="M10.3 51C10.3 41.3 14.1 32.1 20.4 25.1 19.2 26.3 18.1 27.6 17 28.9 12.2 35.9 10.1 43.6 10.3 51" fill="#da5533" data-fill-palette-color="accent"></path><path d="M61 15C66.1 17.2 70.6 19.9 74.7 23.9 74.5 23.6 74.3 23.3 74 23 70 19 66 17 61 15" fill="#da5533" data-fill-palette-color="accent"></path><path d="M42 13C33.4 14.6 25.9 19 20.4 25.2 28.7 16.7 39.4 12.2 50.4 12.8 47.7 12.5 44.9 12.6 42 13" fill="#da5533" data-fill-palette-color="accent"></path><path d="M81.3 33.6C82.7 37 83.6 40.6 84.9 44.5 84.4 41.3 83.5 38.1 82.1 35 81.8 34.5 81.5 34.1 81.3 33.6" fill="#da5533" data-fill-palette-color="accent"></path><path d="M6.4 42.5C6.2 43 6.1 43.5 6 44 4.2 58.2 8.8 72.4 18.9 82.4 8.8 72.2 4 57.1 6.4 42.5" fill="#da5533" data-fill-palette-color="accent"></path><path d="M59 9C65.8 11 70.8 14.8 76.6 18.7 71 13.6 64.1 10 56.5 8.4 57.4 8.6 58.2 8.8 59 9" fill="#da5533" data-fill-palette-color="accent"></path><path d="M82.7 25.7C81.3 23.6 79.6 21.7 77.9 19.9 79.5 21.8 81.1 24 82.7 25.7" fill="#da5533" data-fill-palette-color="accent"></path><path d="M61 15C57.5 13.7 53.9 12.9 50.3 12.7 54 13 57.5 13.8 61 15" fill="#da5533" data-fill-palette-color="accent"></path><path d="M18.9 82.4C22.8 86.3 27.5 89.5 32.9 91.7 29.6 90.3 26.4 88.3 23 86 21.5 84.9 20.2 83.7 18.9 82.4" fill="#da5533" data-fill-palette-color="accent"></path><path d="M32.9 91.7C35.4 92.8 38 93.6 41 94 38.1 93.5 35.5 92.7 32.9 91.7" fill="#da5533" data-fill-palette-color="accent"></path><path d="M6.4 42.5C7.2 39 8.1 35.6 9 33 7.8 36.1 6.9 39.3 6.4 42.5" fill="#da5533" data-fill-palette-color="accent"></path><path d="M9 33C10.1 31.2 11.2 29.2 12.4 27.3 11 29.2 9.7 30.8 9 33" fill="#da5533" data-fill-palette-color="accent"></path><path d="M15.5 72C8.8 60.7 8 47.1 12.5 35.6 12.3 36.1 12.1 36.5 11.9 37 7.2 49.2 9.2 61.9 15.5 72" fill="#da5533" data-fill-palette-color="accent"></path><path d="M12.6 35.6C16.7 26.3 23.5 18.8 33 15 36.8 13.9 40.4 12.8 43.9 12.2 40.9 12.5 37.9 13.1 35 14 24 17.8 16.4 25.9 12.6 35.6" fill="#da5533" data-fill-palette-color="accent"></path><path d="M43.9 12.2C49.6 11.7 55.1 12.3 60.4 14 58 13.1 55.5 12.4 52.9 12 49.8 11.5 46.9 11.7 43.9 12.2" fill="#da5533" data-fill-palette-color="accent"></path><path d="M28.1 84.7C23 81.4 18.7 77 15.5 72 16.5 73.7 17.7 75.4 19 77 21.7 80.1 24.7 82.6 28.1 84.7" fill="#da5533" data-fill-palette-color="accent"></path><path d="M49.6 90.6C47.1 90.6 44.5 90.3 42 90 37 88.9 32.3 87.2 28.1 84.7 32 87.1 36.3 89 41 90 43.9 90.4 46.8 90.6 49.6 90.6" fill="#da5533" data-fill-palette-color="accent"></path><path d="M72 20C68.4 17.3 64.5 15.4 60.5 14 71.4 18.2 80.1 26.9 84 37.2V37C82 30 77 25 72 20" fill="#da5533" data-fill-palette-color="accent"></path><path d="M83 74C86.3 70.1 87.8 65.7 89.1 61.2 87.4 66.9 84.3 72.4 80 77 75 82 69 86 62 89 70 86 77 81 83 74" fill="#da5533" data-fill-palette-color="accent"></path><path d="M22.5 71C19.2 66.4 17 61.2 16.1 55.9 16.7 60.3 18.1 64.7 21 69 21.5 69.7 22 70.3 22.5 71" fill="#da5533" data-fill-palette-color="accent"></path><path d="M70 73C67 75 63 78 59 79 54.3 80.9 48.7 81 43.8 80.1 45.1 80.4 46.5 80.6 48 81 64 82 78 70 81 54 83 41 77 28 65 21 63.9 20.4 62.7 19.9 61.6 19.5 64.8 20.8 67.4 23.3 70 25 85 37 85 60 70 73" fill="#da5533" data-fill-palette-color="accent"></path><path d="M83 64C87.4 55.2 87.3 45.7 84 37.2 85 42.1 86.9 47.1 86 52z" fill="#da5533" data-fill-palette-color="accent"></path><path d="M27 61C26.9 60.7 26.8 60.3 26.7 60 27.8 62.8 29.6 65.5 32 68 44 80 64 76 72 62 77 52 76 42 70 33 66 28 61 24 54 23 46.3 21.5 39 23.2 33.2 27.1 35.3 25.8 37.6 24.8 40 24 53 20 67 26 73 39 75 46 75 52 73 59 67 74 47 80 34 69 30 65 27 61 26 55 25 50 25 45 28 41 30 38 31 35 34 33 39 29 45 27 51 28 55 29 58 31 61 32 65 34 67 39 69 43 69.4 44.2 69.5 45.5 69.4 47 69.4 46 69.3 45 69 44 68 40 66 37 63 34 57 29 50 28 43 29 38 30 34 33 31 37S27 45 26 49C26 55 28 60 31 65 40 77 57 77 67 67 71 63 73 58 74 53 75 49 74 45 73 41S69 34 67 31C59.8 23.8 50.1 22.1 41.5 24.6 48 23.1 54.5 24.2 61 27 66 30 69 35 72 40 73 43 73 45 74 48 74 52 73 56 72 59 65 75 44 78 32 65 24 56 25 43 33 35 39 29 49 27 57 31 57.4 31.2 57.8 31.5 58.2 31.8 49.4 26.5 38.5 30.5 32 37 30 40 29 43 28 46 24 61 37 74 52 73 68 71 78 54 71 39 70 36 68 34 66 32 64.4 29.9 62.3 28.6 59.9 27.6 70.2 32.9 74.7 45.3 72 56 71 58 70 61 68 63 64 68 60 70 54 72 51 72 48 73 45 72 41 71 38 70 35 67 33.4 65.4 32.2 63.9 31.2 62.3 32.7 64.5 34.6 66.2 37 68 41 71 46 72 51 72 56 71 60 70 64 67 67 64 69 60 71 57 74 49 72 40 66 33 60 27 51 25 43 26 33 28 26 36 24 45 23.8 46.4 23.7 47.7 23.6 49 24.1 43.1 27.3 37.5 31 33 38 26 49 24 58 28 63 31 67 35 70 40 76 53 67 68 53 71 47 72 41 70 36 66 34.1 64.4 32.6 62.5 31.5 60.5 34.6 65.9 40.2 69.7 47 71 57 72 66 66 70 57 72 50 71 43 67 36 63 31 59 29 53 27 46 26 40 27 34 31 29 34 27 39 25 44 24 51 24 58 28 64 31 68 34 71 38 73 38.4 73.1 38.8 73.2 39.1 73.4 37.5 72.8 36 72 35 71 32 68 28 65 27 61M47 30C50 30 54 30 57 32 62 35 66 38 67 44 68 48 68 53 66 57 65.6 57.4 65.3 57.8 65 58.2 68.9 51.5 68.2 43.1 63 37 60 34 57 32 53 31 50.1 31 46.6 30.5 43.4 31 44.6 30.6 45.8 30.3 47 30M63.1 60.8C62.3 62 61.4 63.1 60 64 57.5 65.7 54.8 66.6 52.1 67 56.1 66 60 65 63 61 63 60.9 63.1 60.9 63.1 60.8M51 35C48.9 35 47.4 34.5 45.6 34.6 47.3 34.4 49.1 34.5 51 35M32.9 56.6C32.6 55.7 32.3 54.8 32 54 30.6 46.1 34.8 38.3 41.7 35.5 33.6 39.1 30.2 48.7 32.9 56.6M36.4 62.5C34.7 61 33.7 58.9 33 56.8 33.6 58.9 34.8 60.8 36.4 62.5M38 35C37.7 35.1 37.4 35.2 37.2 35.4 38.5 34.4 39.9 33.6 41.4 32.9 40.3 33.6 39.1 34.4 38 35M29 57C29.2 58.1 29.5 59 29.9 59.9 29 58.1 28.4 56.1 28 54 27 51 28 47 29 44 31 41 32 37 35 35 36.1 34.2 37.2 33.5 38.2 33 29.7 38.2 27.1 47.6 29 57M31.7 55.8C32.5 58 33.6 60.1 35 62 38.7 66.6 44.9 69.5 51.4 69.2 42.8 69.9 34.3 64.3 31.7 55.8M54.2 68.7C55.6 68.3 57 67.7 58.3 67 57 67.8 55.6 68.3 54.2 68.7M61 65C57 68 51 69 46 68 44.9 67.6 43.7 67.1 42.6 66.5 50.3 69.4 60.1 67.5 65 60 66 58 67 55 68 53 70 45.1 66.1 38.2 60.3 33.2 63.8 35.9 66.5 39.1 68 43 70 51 68 59 61 65M64.4 62.4C66.3 59.6 68.1 56.8 69 54 68.4 57.7 66.6 60.3 64.4 62.4M70 44C71.7 49.2 70.8 54.6 68.2 59.1 70.8 53.6 71 47.3 68.9 41.3 69.3 42.2 69.6 43.1 70 44M26 43C28 39 30 35 34 32 39 29 44 27 49 27 53 28 57 28 61 31 63.2 32.3 64.8 34 66.1 35.9 57.9 24.9 40.2 24.9 31 35 27 40 25 45 25 51V52.4C24.7 49.3 25 46.1 26 43" fill="#da5533" data-fill-palette-color="accent"></path><path d="M53.4 75.9C55.7 75.4 57.9 74.6 60 74 66 71 71 66 74 60 80 45 72 29 58 23 45 18 30 24 23 36L20 45C17.4 57 23 68.3 32.2 75.1 31.8 74.8 31.4 74.4 31 74 28.6 71.6 26.3 68.9 24.4 66 24.9 66.7 25.4 67.4 26 68 29 71 32 74 35 76 51 85 71 78 78 61 80 56 81 51 80 45 77 27 61 15 43 18 37 19 31 21 26 26 25.3 27 24.5 28 23.8 29 25.3 27.3 27.1 25.7 29 24 39 17 51 16 62 21 72 26 79 35 80 47 81 62 71 75 57 79 51 80 45 80 40 78 33 75 26 70 23 62 21.1 56.3 20.1 51.5 20.9 45.9 20.3 49.4 20.3 53.2 21 57 21.7 59.9 22.5 62.9 24 65.4 20.7 60.1 18.7 53.9 20 47 21 44 21 41 23 38 26 33 29 29 33 26 46 18 62 21 71 34 73 37 74 40 75 43 76 53 75 62 67 69 64 71 61 73 58 74 53 75 49 76 44 75 45 75.3 46 75.7 47 76 47.4 76.1 47.7 76.1 48.1 76.2 47.1 76.2 46 76.1 45 76 39 75 34 72 30 67 27 63 25 59 24 55 23.5 53.1 23.4 51.2 23.5 49.3 23.1 54.5 23.8 59.3 27 64 37 80 59 81 71 67 71.9 65.6 72.6 64.1 73.3 62.7 72.9 63.5 72.5 64.3 72 65 67.7 71.5 60.7 74.9 53.4 75.9" fill="#da5533" data-fill-palette-color="accent"></path><path d="M20 69C18 66 17 63 16 60 15 55 15 51 15 46 18 25 40 12 60 19 60.4 19.1 60.9 19.3 61.3 19.4 58.5 18.4 55.8 17.7 53 17 37 15 21 25 16 40 14 47 14 54 16 61 18 65 19 69 22 73 29.1 81.4 39.3 85.4 49.4 85.4 37.7 85.2 26.7 79.9 20 69" fill="#da5533" data-fill-palette-color="accent"></path><path d="M90.4 43.1C91.1 48.2 90.9 53.4 89.8 58.4L91 53.9C91.6 50.4 91.1 46.8 90.4 43.1" fill="#da5533" data-fill-palette-color="accent"></path><path d="M90 26C87 21 83 16 78 12 77.5 11.6 77 11.3 76.5 10.9 91.3 21.9 98.7 40.9 94.9 58.8 95.4 57 95.7 55 96 53 97 43 94 35 90 26" fill="#da5533" data-fill-palette-color="accent"></path><path d="M16.1 55.9C15.5 51.1 16 46.2 17 41 17.3 39.8 17.8 38.6 18.3 37.5 18.2 37.7 18.1 37.8 18 38 15.5 43.9 15 50 16.1 55.9" fill="#da5533" data-fill-palette-color="accent"></path><path d="M44 75C42.4 74.5 40.8 73.9 39.1 73.4 40.8 74 42.5 74.5 44 75" fill="#da5533" data-fill-palette-color="accent"></path><path d="M76.5 10.9C73.3 8.6 69.8 6.5 66 5 69.5 7.6 73 8.7 76.5 10.9" fill="#da5533" data-fill-palette-color="accent"></path><path d="M21 45C20.9 45.3 20.9 45.6 20.9 45.9 22.3 38.1 26.9 31.3 33.2 27.1 26.9 31.1 22.5 37.5 21 45" fill="#da5533" data-fill-palette-color="accent"></path><path d="M77.9 18.7C83.6 24 87.4 30.8 89.4 38 89.3 37.3 89.1 36.7 89 36 86.9 29.2 82.9 23.4 77.9 18.7" fill="#da5533" data-fill-palette-color="accent"></path><path d="M66.2 10.9C63.8 9.8 61.4 8.8 59 8 53 7 48 6 42 7 41.3 7.2 40.7 7.4 40 7.6L43 7C51 6.2 59.1 7.7 66.2 10.9" fill="#da5533" data-fill-palette-color="accent"></path><path d="M15 22C17.5 19.5 20.3 17.1 23.3 14.9 23.2 14.9 23.1 15 23 15 19 17 17 20 14 23 7.5 30.8 4.4 40.4 4.4 50.2 4.5 48.1 4.7 46 5 44 7 36 10 29 15 22" fill="#da5533" data-fill-palette-color="accent"></path><path d="M70 91C62.3 95.3 53.9 95.9 45.4 95.4 51.2 96 57.2 95.6 63 94 73 91 82 84 88 75 83 82 77 87 70 91" fill="#da5533" data-fill-palette-color="accent"></path><path d="M6.9 65.7C6.9 65.8 7 65.9 7 66 10 74.7 15.5 81.7 22.3 86.7 15 80.6 9.9 73.8 6.9 65.7" fill="#da5533" data-fill-palette-color="accent"></path><path d="M22 84C23 85 24 85.7 25.2 86.3 22.9 84.5 20.9 82.7 19.1 80.9 20 82 21 83 22 84" fill="#da5533" data-fill-palette-color="accent"></path><path d="M65.1 91C60.4 92.5 55.7 93 51 93 45 94 39 93 33 90 30.3 88.6 27.6 87.7 25.2 86.3 25.5 86.5 25.8 86.7 26 87 38.5 94.8 52.8 95.7 65.1 91" fill="#da5533" data-fill-palette-color="accent"></path><path d="M83.3 77.7C78.4 83.9 72.1 88.4 65.1 91 67.4 90.3 69.7 89.3 72 88 76.7 84.9 80.1 81.8 83.3 77.7" fill="#da5533" data-fill-palette-color="accent"></path><path d="M23.8 29C21.5 31.6 19.6 34.4 18.3 37.5 19.7 34.7 21.7 31.8 23.8 29" fill="#da5533" data-fill-palette-color="accent"></path><path d="M82 26L80 24C83.2 28 85.6 32.4 87.1 37.1 86 33.2 84.2 29.5 82 26" fill="#da5533" data-fill-palette-color="accent"></path><path d="M8 62C9 66 11 70 13 74 13.8 75 14.5 76 15.3 76.9 12.2 71.9 9.7 66.4 7.8 60.7 7.9 61.1 7.9 61.5 8 62" fill="#da5533" data-fill-palette-color="accent"></path><path d="M7 43C9 38.1 10 33.2 12.8 28.3 10.8 31.5 9.2 35.1 8 39 6 45 6 52 7 58 7.3 58.9 7.5 59.8 7.8 60.6 6.9 54.2 6.1 48.6 7 43" fill="#da5533" data-fill-palette-color="accent"></path><path d="M16 78L19 81C17.8 79.7 16.5 78.4 15.3 76.9 15.5 77.2 15.8 77.6 16 78" fill="#da5533" data-fill-palette-color="accent"></path><path d="M75.9 36.3C74.7 33.8 73.1 31.5 71.3 29.3 73.2 31.5 74.7 33.8 75.9 36.3" fill="#da5533" data-fill-palette-color="accent"></path><path d="M54.7 25.6C56.5 26.3 58.2 26.8 59.9 27.5 58.6 27 57.4 26.4 56 26 55.6 25.9 55.1 25.7 54.7 25.6" fill="#da5533" data-fill-palette-color="accent"></path><path d="M31.2 70.6C29.9 69.3 28.8 67.9 27.7 66.7 28.7 68.1 29.9 69.4 31.2 70.6" fill="#da5533" data-fill-palette-color="accent"></path><path d="M43 25C25 29 16 51 27 66 27.2 66.2 27.4 66.5 27.7 66.7 27 65.8 26.5 64.9 26 64 25 61 24 59 23 56 22 51 23 46 24 42 28.8 30.4 42.1 22.6 54.7 25.6 54.1 25.4 53.6 25.2 53 25 50 24 46 25 43 25" fill="#da5533" data-fill-palette-color="accent"></path><path d="M80.1 65.4C78.8 67.3 77.5 69.3 76.2 71.2 77.7 69.4 79 67.5 80.1 65.4" fill="#da5533" data-fill-palette-color="accent"></path><path d="M87 62C84.5 67.9 81.2 73.2 77.2 77.7 77.5 77.5 77.7 77.3 78 77 88.5 66.5 91.7 50.9 87.1 37.1 89.7 45.2 89.7 53.8 87 62" fill="#da5533" data-fill-palette-color="accent"></path><path d="M26 15C30 13 33 11 37 10 50 7 62 9 73 17L80 24C62 1 28 4 13 28 12.9 28.1 12.9 28.2 12.8 28.3 16.1 23.1 20.5 18.7 26 15" fill="#da5533" data-fill-palette-color="accent"></path><path d="M48 78C52.1 78.7 55.8 77.5 59.3 76 51.7 78.6 43.1 77.6 36 74 34.3 73.2 32.7 72 31.2 70.6 32 71.5 33 72.3 34 73 38 76 43 77 48 78" fill="#da5533" data-fill-palette-color="accent"></path><path d="M75 80C75.8 79.2 76.5 78.5 77.2 77.7 71.5 82.3 65.7 86.1 58 88 64.1 86.9 69.9 84.3 75 80" fill="#da5533" data-fill-palette-color="accent"></path><path d="M58 88L56.5 88.3z" fill="#da5533" data-fill-palette-color="accent"></path><path d="M67 25C66.8 24.8 66.5 24.6 66.3 24.5 67.5 25.5 68.7 26.5 69.7 27.6 68.9 26.6 68 25.8 67 25" fill="#da5533" data-fill-palette-color="accent"></path><path d="M18 42C20.3 33.5 25.7 26.9 32.3 22.9 32.2 22.9 32.1 23 32 23 28 25 26 28 23 31 17.4 39 15 49 17.4 58.3 16.4 52.9 16.8 47.3 18 42" fill="#da5533" data-fill-palette-color="accent"></path><path d="M54 19C55.5 19.7 57.4 19.9 59.2 20.4 50.3 16.9 40.4 18 32.3 22.9 39.2 19.9 46.1 18 54 19" fill="#da5533" data-fill-palette-color="accent"></path><path d="M25 65C29 70 33 75 39 77 43 78 47 80 52 79 56 78 60 78 63 76 66.9 73.7 70.8 70.1 73.7 66.3 71.9 68.2 70.8 70.1 68 72 60 78 50 80 41 77 38 76 35 74 32 72 19.8 62.7 18.9 45.6 26.8 34.5 25.3 36.5 24 38.6 23 41 20 49 21 58 25 65" fill="#da5533" data-fill-palette-color="accent"></path><path d="M20 65C18.8 62.8 17.9 60.6 17.4 58.3 18.1 62 19.5 65.7 22 69 26 74 30 79 36 81L39.3 81.9C31.2 79.2 24 73.5 20 65" fill="#da5533" data-fill-palette-color="accent"></path><path d="M75.9 36.3C79.9 44.4 80.4 53.9 76 62.9 80.8 54.5 80.1 44.7 75.9 36.3" fill="#da5533" data-fill-palette-color="accent"></path><path d="M26.8 34.5C30.6 29.7 35.8 26.3 41.5 24.6 41 24.7 40.5 24.8 40 25 34.4 26.7 29.9 30.1 26.8 34.5" fill="#da5533" data-fill-palette-color="accent"></path><path d="M76.1 62.9C76 63 76 63.1 75.9 63.2 75.9 63.1 76 63.1 76 63 76 63 76 62.9 76.1 62.9" fill="#da5533" data-fill-palette-color="accent"></path><path d="M75.9 63.2C75.3 64.3 74.5 65.3 73.7 66.3L74 66C74.7 65.1 75.3 64.1 75.9 63.2" fill="#da5533" data-fill-palette-color="accent"></path><path d="M61 21C60.5 20.7 59.8 20.5 59.2 20.4 61.3 21.2 63.3 22.3 65.2 23.7 63.9 22.7 62.5 21.8 61 21" fill="#da5533" data-fill-palette-color="accent"></path><path d="M26.1 81C20.8 76.8 17 71.2 14.4 65.4 16.9 71.8 21 77.1 26.1 81" fill="#da5533" data-fill-palette-color="accent"></path><path d="M13 62C13.4 63.1 13.9 64.3 14.4 65.4 13.9 64 13.4 62.5 13 61 11.2 53.9 11 46.7 13.1 39.6 10.8 46.7 10.5 54.5 13 62" fill="#da5533" data-fill-palette-color="accent"></path><path d="M13.1 39.6C13.5 38.3 14 37.1 14.6 35.9L14 37.1C13.7 37.9 13.4 38.7 13.1 39.6" fill="#da5533" data-fill-palette-color="accent"></path><path d="M29 83C29.1 83.1 29.3 83.1 29.4 83.2 28.6 82.7 27.8 82.2 27.1 81.7 27.7 82.1 28.3 82.6 29 83" fill="#da5533" data-fill-palette-color="accent"></path><path d="M39.3 81.9C44.6 83.7 50.4 84.1 56 83.2 50.4 83.8 44.9 83.2 39.3 81.9" fill="#da5533" data-fill-palette-color="accent"></path><path d="M29.4 83.2C37.2 87.9 46.8 89.9 56.6 88.3 47.5 89.6 38 87.7 29.4 83.2" fill="#da5533" data-fill-palette-color="accent"></path><path d="M26 21C21.1 25.1 17.2 30.2 14.6 35.8 16.6 32.2 19.3 28.6 22 25 39.1 6.9 70.7 12.4 80.6 34.5 79.9 32.7 79.1 30.8 78 29 66 12 42 8 26 21" fill="#da5533" data-fill-palette-color="accent"></path><path d="M58.8 82.5C64.8 81 70.4 77.8 75 73L76.2 71.2C71.8 76.5 65.9 80.5 58.8 82.5" fill="#da5533" data-fill-palette-color="accent"></path><path d="M57 83C57.6 82.9 58.2 82.7 58.8 82.5 57.9 82.7 57 82.9 56 83.1 56.3 83.1 56.7 83 57 83" fill="#da5533" data-fill-palette-color="accent"></path><path d="M80.6 34.5C81.3 36.3 81.9 38 82.4 39.8 82.3 39.2 82.1 38.6 81.9 38 81.6 36.8 81.1 35.6 80.6 34.5" fill="#da5533" data-fill-palette-color="accent"></path><path d="M81 64C83 58 86 51 84 44 83.4 42.6 83 41.2 82.5 39.8 83 42.2 83.2 44.6 84 47 84.4 53.6 83 59.9 80.1 65.4 80.4 64.9 80.7 64.5 81 64" fill="#da5533" data-fill-palette-color="accent"></path></svg></g></svg></g><g id="text-0"><path d="M39.597 86.036l1.74-4.118 1.532 0.648-3.346 7.921-6.703 0.105-5.254 12.436 4.597 4.88-3.347 7.921-1.533-0.648 1.74-4.117-18.97-20.124 1.892-4.478zM24.406 99.691l3.815-9.029-12.146 0.189z" fill="#da5527" data-fill-palette-color="primary"></path><path d="M52.033 66.996l4.711-6.5 1.347 0.976-17.391 23.996-1.347-0.976 4.687-6.468c-3.522 1.227-7.157 0.482-10.906-2.235v0l-12.278-8.899 2.67-3.684 12.124 8.787c1.996 1.447 3.941 2.093 5.835 1.939 1.889-0.158 3.45-1.089 4.686-2.793 1.239-1.71 1.64-3.486 1.202-5.33-0.443-1.848-1.663-3.495-3.66-4.942v0l-12.123-8.787 2.67-3.684 12.278 8.899c3.771 2.733 5.603 5.967 5.495 9.701z" fill="#da5527" data-fill-palette-color="primary"></path><path d="M73.398 47.004l6.935-5.609 1.047 1.293-23.464 18.977-1.046-1.294 2.907-2.351-15.914-19.676 7.2-5.823c3.761-3.042 7.392-4.466 10.892-4.272 3.5 0.194 6.592 1.951 9.277 5.271v0c3.609 4.463 4.331 8.957 2.166 13.484zM67.663 36.406v0c-3.882-4.8-8.574-4.976-14.076-0.526v0l-3.538 2.862 11.628 14.377 3.928-3.176c2.54-2.055 3.996-4.233 4.368-6.537 0.372-2.303-0.398-4.636-2.31-7z" fill="#da5527" data-fill-palette-color="primary"></path><path d="M81.232 40.953l3.304-1.748-11.834-22.368 4.031-2.133 11.834 22.368 3.305-1.748 0.778 1.471-10.64 5.629z" fill="#da5527" data-fill-palette-color="primary"></path><path d="M106.337 30.33l8.895-2.948 0.524 1.579-22.119 7.331-0.523-1.579 8.904-2.951-6.65-20.064-7.772 2.576-1.312-3.957 19.854-6.581 1.312 3.957-7.763 2.573z" fill="#da5527" data-fill-palette-color="primary"></path><path d="M116.635 27.129l10.44-1.676 0.264 1.642-10.44 1.677z" fill="#da5527" data-fill-palette-color="primary"></path><path d="M136.669 25.366l18.089 0.245-0.023 1.663-26.386-0.357 0.023-1.664 3.738 0.051 0.342-25.304 9.26 0.125c4.095 0.055 7.071 0.881 8.927 2.477 1.856 1.595 2.762 4.023 2.718 7.283-0.044 3.267-1.035 5.649-2.973 7.147-1.938 1.491-4.888 2.209-8.85 2.155v0l-4.78-0.065zM142.091 15.065c2.525 0.034 4.249-0.427 5.171-1.383 0.928-0.95 1.405-2.356 1.43-4.221 0.025-1.864-0.535-3.191-1.68-3.982-1.152-0.784-2.961-1.193-5.426-1.226v0l-4.63-0.062-0.146 10.803z" fill="#da5527" data-fill-palette-color="primary"></path><path d="M177.712 31.967l8.512 2.382-0.448 1.602-31.213-8.736 0.449-1.602 8.512 2.383c-1.707-1.734-2.866-3.779-3.476-6.136-0.608-2.363-0.562-4.796 0.138-7.298v0c1.068-3.816 3.273-6.636 6.615-8.462 3.344-1.832 6.949-2.208 10.816-1.126 3.867 1.082 6.754 3.275 8.661 6.577 1.908 3.296 2.329 6.851 1.26 10.667v0c-0.693 2.477-1.917 4.58-3.67 6.31-1.752 1.723-3.804 2.869-6.156 3.439zM182.248 13.566c-1.263-2.331-3.181-3.856-5.755-4.577-2.574-0.72-5.005-0.412-7.294 0.925-2.283 1.339-3.79 3.314-4.521 5.926-0.731 2.612-0.469 5.083 0.788 7.412 1.263 2.331 3.181 3.856 5.754 4.577 2.574 0.72 5.005 0.412 7.295-0.925 2.283-1.339 3.79-3.314 4.52-5.926 0.731-2.612 0.469-5.083-0.787-7.412z" fill="#da5527" data-fill-palette-color="primary"></path><path d="M207.964 47.492l3.201 1.931-0.859 1.425-7.14-4.308-0.824-11.09-5.124-3.09-4.685 7.766-7.105-4.286 0.859-1.425 3.201 1.931 13.072-21.669 8.59 5.182c3.524 2.126 5.688 4.243 6.492 6.352 0.804 2.108 0.416 4.472-1.165 7.092v0c-2.299 3.81-5.411 5.206-9.338 4.187v0zM204.208 31.754c2.203 1.329 3.904 1.891 5.105 1.687 1.206-0.201 2.264-1.057 3.175-2.568 0.911-1.51 1.127-2.793 0.647-3.846-0.474-1.051-1.758-2.208-3.852-3.471v0l-4.952-2.987-4.98 8.255z" fill="#da5527" data-fill-palette-color="primary"></path><path d="M220.881 58.93l6.733 6.518-1.157 1.195-16.743-16.206 1.157-1.196 6.74 6.525 14.701-15.188-5.883-5.695 2.899-2.995 15.029 14.547-2.899 2.996-5.877-5.688z" fill="#da5527" data-fill-palette-color="primary"></path><path d="M242.167 89.517l2.297 3.834-1.427 0.855-4.42-7.376 3.87-5.474-6.939-11.58-6.652 0.832-4.42-7.377 1.427-0.855 2.297 3.835 27.441-3.44 2.499 4.169zM240.107 69.194l5.038 8.408 7.015-9.917z" fill="#da5527" data-fill-palette-color="primary"></path><path d="M250.377 109.936l1.223 3.533-1.572 0.544-7.965-23.004 1.572-0.544 1.223 3.532 23.913-8.28 1.492 4.309-21.403 7.411 4.027 11.63z" fill="#da5527" data-fill-palette-color="primary"></path><path d="M17.817 203.114l1.739 4.117-1.532 0.648-3.347-7.921 4.597-4.88-5.254-12.436-6.703-0.106-3.347-7.921 1.533-0.647 1.74 4.117 27.652 0.427 1.892 4.478zM18.615 182.703l3.815 9.029 8.331-8.841z" fill="#da5527" data-fill-palette-color="primary"></path><path d="M32.888 226.827l4.711 6.5-1.347 0.977-17.392-23.997 1.347-0.976 4.688 6.468c-0.07-3.729 1.77-6.952 5.519-9.669v0l12.278-8.899 2.67 3.685-12.124 8.786c-1.996 1.447-3.216 3.094-3.659 4.942-0.438 1.844-0.039 3.618 1.196 5.322 1.239 1.71 2.803 2.643 4.691 2.802 1.894 0.154 3.839-0.493 5.836-1.94v0l12.124-8.787 2.67 3.685-12.278 8.898c-3.771 2.733-7.414 3.467-10.93 2.203z" fill="#da5527" data-fill-palette-color="primary"></path><path d="M58.529 251.328l6.936 5.609-1.047 1.294-23.463-18.977 1.046-1.294 2.907 2.351 15.913-19.676 7.201 5.823c3.761 3.042 5.913 6.295 6.455 9.758 0.542 3.463-0.53 6.854-3.215 10.174v0c-3.609 4.463-7.854 6.109-12.733 4.938zM67.693 243.504v0c3.882-4.8 3.073-9.425-2.429-13.875v0l-3.538-2.861-11.628 14.377 3.928 3.176c2.54 2.055 4.975 3.023 7.305 2.905 2.33-0.118 4.45-1.359 6.362-3.722z" fill="#da5527" data-fill-palette-color="primary"></path><path d="M70.175 259.894l3.304 1.748 11.835-22.368 4.03 2.132-11.834 22.369 3.304 1.748-0.778 1.47-10.639-5.629z" fill="#da5527" data-fill-palette-color="primary"></path><path d="M98.898 272.061l8.895 2.948-0.523 1.58-22.119-7.332 0.524-1.579 8.904 2.952 6.65-20.064-7.772-2.576 1.312-3.958 19.854 6.581-1.312 3.958-7.763-2.573z" fill="#da5527" data-fill-palette-color="primary"></path><path d="M112.887 276.164l10.44 1.676-0.264 1.643-10.44-1.676z" fill="#da5527" data-fill-palette-color="primary"></path><path d="M136.989 278.224l18.089-0.245 0.023 1.664-26.387 0.357-0.022-1.664 3.738-0.05-0.343-25.304 9.26-0.126c4.095-0.055 7.092 0.689 8.991 2.234 1.899 1.545 2.87 3.947 2.914 7.207 0.044 3.267-0.882 5.675-2.779 7.225-1.897 1.543-4.826 2.341-8.788 2.394v0l-4.78 0.065zM142.13 267.78c2.525-0.034 4.236-0.542 5.132-1.522 0.902-0.974 1.341-2.394 1.315-4.258-0.025-1.864-0.621-3.176-1.787-3.935-1.173-0.753-2.992-1.112-5.457-1.079v0l-4.63 0.063 0.146 10.803z" fill="#da5527" data-fill-palette-color="primary"></path><path d="M184.085 270.75l8.512-2.382 0.449 1.602-31.213 8.736-0.448-1.602 8.512-2.383c-2.359-0.596-4.411-1.742-6.156-3.439-1.747-1.704-2.97-3.807-3.67-6.31v0c-1.068-3.816-0.648-7.371 1.26-10.666 1.907-3.302 4.793-5.494 8.661-6.577 3.867-1.082 7.472-0.707 10.816 1.125 3.342 1.826 5.547 4.647 6.615 8.463v0c0.693 2.477 0.739 4.91 0.138 7.298-0.603 2.382-1.762 4.427-3.476 6.135zM178.41 252.669c-2.289-1.337-4.721-1.645-7.294-0.925-2.574 0.72-4.492 2.246-5.755 4.577-1.256 2.329-1.519 4.8-0.787 7.412 0.731 2.612 2.238 4.588 4.52 5.926 2.289 1.337 4.721 1.645 7.295 0.924 2.574-0.72 4.492-2.246 5.754-4.576 1.256-2.329 1.519-4.8 0.787-7.412-0.731-2.612-2.238-4.588-4.52-5.926z" fill="#da5527" data-fill-palette-color="primary"></path><path d="M220.178 252.701l3.201-1.931 0.859 1.425-7.14 4.307-10.194-4.443-5.124 3.091 4.685 7.766-7.105 4.287-0.86-1.425 3.201-1.931-13.071-21.669 8.59-5.182c3.524-2.126 6.406-3.053 8.646-2.781 2.24 0.272 4.15 1.718 5.73 4.339v0c2.299 3.81 2.082 7.215-0.651 10.213v0zM204.505 248.684c2.203-1.329 3.493-2.572 3.872-3.729 0.385-1.161 0.121-2.496-0.79-4.006-0.911-1.51-1.945-2.299-3.101-2.366-1.151-0.071-2.773 0.526-4.867 1.788v0l-4.952 2.987 4.98 8.256z" fill="#da5527" data-fill-palette-color="primary"></path><path d="M237.326 238.006l6.733-6.517 1.157 1.195-16.743 16.207-1.157-1.196 6.74-6.524-14.701-15.188-5.883 5.695-2.9-2.995 15.029-14.548 2.9 2.996-5.876 5.688z" fill="#da5527" data-fill-palette-color="primary"></path><path d="M262.448 202.585l2.298-3.835 1.427 0.856-4.42 7.376-6.652-0.832-6.94 11.58 3.871 5.474-4.421 7.376-1.427-0.855 2.298-3.834-15.973-22.577 2.498-4.169zM245.499 213.984l5.038-8.407-12.053-1.51z" fill="#da5527" data-fill-palette-color="primary"></path><path d="M272.72 177.747l1.223-3.532 1.572 0.544-7.965 23.004-1.572-0.544 1.223-3.532-23.913-8.281 1.492-4.309 21.403 7.411 4.027-11.63z" fill="#da5527" data-fill-palette-color="primary"></path><path d="M3.163 139.974c0-5.829 4.725-10.554 10.554-10.554 5.829 0 10.554 4.725 10.553 10.554 0 5.829-4.725 10.554-10.553 10.553-5.829 0-10.554-4.725-10.554-10.553z" fill="#da5527" data-fill-palette-color="primary"></path><path d="M255.73 139.974c0-5.829 4.725-10.554 10.553-10.554 5.829 0 10.554 4.725 10.554 10.554 0 5.829-4.725 10.554-10.554 10.553-5.829 0-10.554-4.725-10.553-10.553z" fill="#da5527" data-fill-palette-color="primary"></path></g><g id="text-1"></g></svg></g></svg></g></svg></g><g></g></svg></g><defs></defs></svg><rect width="280" height="280" fill="none" stroke="none" visibility="hidden"></rect></g></svg></g></svg>